<svg xmlns="http://www.w3.org/2000/svg"  viewBox="0 0 100 100" width="480px" height="480px"><path fill="#c7ede6" d="M87.215,56.71C88.35,54.555,89,52.105,89,49.5c0-6.621-4.159-12.257-10.001-14.478 C78.999,35.015,79,35.008,79,35c0-11.598-9.402-21-21-21c-9.784,0-17.981,6.701-20.313,15.757C36.211,29.272,34.638,29,33,29 c-7.692,0-14.023,5.793-14.89,13.252C12.906,43.353,9,47.969,9,53.5C9,59.851,14.149,65,20.5,65c0.177,0,0.352-0.012,0.526-0.022 C21.022,65.153,21,65.324,21,65.5C21,76.822,30.178,86,41.5,86c6.437,0,12.175-2.972,15.934-7.614C59.612,80.611,62.64,82,66,82 c4.65,0,8.674-2.65,10.666-6.518C77.718,75.817,78.837,76,80,76c6.075,0,11-4.925,11-11C91,61.689,89.53,58.727,87.215,56.71z"/><path fill="#fff" d="M14.405,50H4.5C4.224,50,4,49.776,4,49.5S4.224,49,4.5,49h9.905c0.276,0,0.5,0.224,0.5,0.5 S14.682,50,14.405,50z M17.5,50h-1c-0.276,0-0.5-0.224-0.5-0.5s0.224-0.5,0.5-0.5h1c0.276,0,0.5,0.224,0.5,0.5S17.777,50,17.5,50 z M22.491,52H13.5c-0.276,0-0.5-0.224-0.5-0.5s0.224-0.5,0.5-0.5h8.991c0.276,0,0.5,0.224,0.5,0.5S22.767,52,22.491,52z M11.5,52 h-1c-0.276,0-0.5-0.224-0.5-0.5s0.224-0.5,0.5-0.5h1c0.276,0,0.5,0.224,0.5,0.5S11.777,52,11.5,52z M8.5,52h-2 C6.224,52,6,51.776,6,51.5S6.224,51,6.5,51h2C8.776,51,9,51.224,9,51.5S8.777,52,8.5,52z M14.5,54h-2c-0.276,0-0.5-0.224-0.5-0.5 s0.224-0.5,0.5-0.5h2c0.276,0,0.5,0.224,0.5,0.5S14.776,54,14.5,54z M17.5,45c-0.177,0-0.823,0-1,0c-0.276,0-0.5,0.224-0.5,0.5 s0.224,0.5,0.5,0.5c0.177,0,0.823,0,1,0c0.276,0,0.5-0.224,0.5-0.5S17.776,45,17.5,45z M17.5,47c-0.177,0-4.823,0-5,0 c-0.276,0-0.5,0.224-0.5,0.5s0.224,0.5,0.5,0.5c0.177,0,4.823,0,5,0c0.276,0,0.5-0.224,0.5-0.5S17.776,47,17.5,47z M22.5,49 c-0.177,0-2.823,0-3,0c-0.276,0-0.5,0.224-0.5,0.5s0.224,0.5,0.5,0.5c0.177,0,2.823,0,3,0c0.276,0,0.5-0.224,0.5-0.5 S22.776,49,22.5,49z"/><path fill="#fff" d="M86.5,62h-10c-0.276,0-0.5-0.224-0.5-0.5s0.224-0.5,0.5-0.5h10c0.276,0,0.5,0.224,0.5,0.5 S86.776,62,86.5,62z M90.5,62h-2c-0.276,0-0.5-0.224-0.5-0.5s0.224-0.5,0.5-0.5h2c0.276,0,0.5,0.224,0.5,0.5S90.776,62,90.5,62z M95.5,64h-10c-0.276,0-0.5-0.224-0.5-0.5s0.224-0.5,0.5-0.5h10c0.276,0,0.5,0.224,0.5,0.5S95.777,64,95.5,64z M83.5,64h-1 c-0.276,0-0.5-0.224-0.5-0.5s0.224-0.5,0.5-0.5h1c0.276,0,0.5,0.224,0.5,0.5S83.776,64,83.5,64z M80.375,64H78.5 c-0.276,0-0.5-0.224-0.5-0.5s0.224-0.5,0.5-0.5h1.875c0.276,0,0.5,0.224,0.5,0.5S80.651,64,80.375,64z M89.5,60h-5 c-0.276,0-0.5-0.224-0.5-0.5s0.224-0.5,0.5-0.5h5c0.276,0,0.5,0.224,0.5,0.5S89.777,60,89.5,60z M86.5,66h-2 c-0.276,0-0.5-0.224-0.5-0.5s0.224-0.5,0.5-0.5h2c0.276,0,0.5,0.224,0.5,0.5S86.776,66,86.5,66z"/><path fill="#fdfcef" d="M71.125,46.5c0,0-3.64,0-6.125,0s-4.5-2.015-4.5-4.5c0-2.333,1.782-4.229,4.055-4.455 C64.533,37.364,64.5,37.187,64.5,37c0-2.485,2.015-4.5,4.5-4.5c1.438,0,2.703,0.686,3.527,1.736 C72.667,31.6,74.829,29.5,77.5,29.5c2.761,0,5,2.239,5,5c0,0.446-0.077,0.87-0.187,1.282C82.955,35.005,83.914,34.5,85,34.5 c1.781,0,3.234,1.335,3.455,3.055C88.636,37.533,88.813,37.5,89,37.5c2.485,0,4.5,2.015,4.5,4.5s-2.015,4.5-4.5,4.5 s-9.5,0-9.5,0h-5.375V47h-3V46.5z"/><path fill="#472b29" d="M77.5,29c3.033,0,5.5,2.467,5.5,5.5c0,0.016,0,0.031,0,0.047C83.602,34.192,84.29,34,85,34 c1.831,0,3.411,1.261,3.858,3.005C88.905,37.002,88.952,37,89,37c2.757,0,5,2.243,5,5s-2.243,5-5,5H74.125 c-0.276,0-0.5-0.224-0.5-0.5s0.224-0.5,0.5-0.5H89c2.206,0,4-1.794,4-4s-1.794-4-4-4c-0.117,0-0.23,0.017-0.343,0.032 l-0.141,0.019c-0.021,0.003-0.041,0.004-0.062,0.004c-0.246,0-0.462-0.185-0.495-0.437C87.768,36.125,86.496,35,85,35 c-0.885,0-1.723,0.401-2.301,1.1c-0.098,0.118-0.241,0.182-0.386,0.182c-0.078,0-0.156-0.018-0.228-0.056 c-0.209-0.107-0.314-0.346-0.254-0.573C81.946,35.218,82,34.852,82,34.5c0-2.481-2.019-4.5-4.5-4.5 c-2.381,0-4.347,1.872-4.474,4.263c-0.011,0.208-0.15,0.387-0.349,0.45c-0.05,0.016-0.101,0.024-0.152,0.024 c-0.15,0-0.296-0.069-0.392-0.192C71.362,33.563,70.221,33,69,33c-2.206,0-4,1.794-4,4c0,0.117,0.017,0.23,0.032,0.343 l0.019,0.141c0.016,0.134-0.022,0.268-0.106,0.373s-0.207,0.172-0.34,0.185C62.549,38.247,61,39.949,61,42c0,2.206,1.794,4,4,4 h6.125c0.276,0,0.5,0.224,0.5,0.5s-0.224,0.5-0.5,0.5H65c-2.757,0-5-2.243-5-5c0-2.397,1.689-4.413,4.003-4.877 C64.001,37.082,64,37.041,64,37c0-2.757,2.243-5,5-5c1.176,0,2.293,0.416,3.183,1.164C72.781,30.76,74.945,29,77.5,29L77.5,29z"/><path fill="#472b29" d="M79,36c-0.256,0-0.517,0.04-0.819,0.126c-0.133,0.038-0.21,0.176-0.172,0.309 c0.032,0.109,0.13,0.182,0.239,0.182c0.023,0,0.047-0.003,0.07-0.01C78.575,36.534,78.792,36.5,79,36.5 c1.288,0,2.377,1.012,2.481,2.305c0.007,0.095,0.067,0.177,0.155,0.212c0.03,0.013,0.061,0.019,0.093,0.019 c0.059,0,0.118-0.022,0.165-0.063c0.346-0.305,0.784-0.473,1.231-0.473c1.034,0,1.875,0.841,1.875,1.875 c0,0.08,0.038,0.162,0.102,0.208c0.046,0.034,0.101,0.054,0.156,0.054c0.022,0,0.045-0.003,0.067-0.01 c0.268-0.085,0.509-0.127,0.738-0.127c1.268,0,2.33,0.997,2.419,2.268C88.491,42.899,88.601,43,88.731,43 c0.006,0,0.012,0,0.018,0c0.137-0.01,0.241-0.13,0.231-0.268C88.873,41.2,87.591,40,86.062,40c-0.188,0-0.381,0.022-0.584,0.068 C85.323,38.897,84.327,38,83.125,38c-0.426,0-0.845,0.119-1.212,0.341C81.609,36.999,80.403,36,79,36L79,36z M65.117,37.5 c-0.139,0-0.275,0.016-0.409,0.034c-0.137,0.018-0.233,0.144-0.214,0.281c0.017,0.125,0.125,0.217,0.246,0.217 c0.012,0,0.023-0.001,0.035-0.003C64.887,38.014,65,38,65.117,38c1.104,0,2.088,0.748,2.393,1.818 C67.541,39.928,67.641,40,67.75,40c0.022,0,0.045-0.003,0.069-0.009c0.133-0.038,0.21-0.176,0.172-0.309 C67.625,38.397,66.443,37.5,65.117,37.5L65.117,37.5z"/><path fill="#fdfcef" d="M34.5,69.5c0,0,1.567,0,3.5,0s3.5-1.567,3.5-3.5c0-1.781-1.335-3.234-3.055-3.455 C38.473,62.366,38.5,62.187,38.5,62c0-1.933-1.567-3.5-3.5-3.5c-1.032,0-1.95,0.455-2.59,1.165 c-0.384-1.808-1.987-3.165-3.91-3.165c-2.209,0-4,1.791-4,4c0,0.191,0.03,0.374,0.056,0.558C24.128,60.714,23.592,60.5,23,60.5 c-1.228,0-2.245,0.887-2.455,2.055C20.366,62.527,20.187,62.5,20,62.5c-1.933,0-3.5,1.567-3.5,3.5s1.567,3.5,3.5,3.5 s7.5,0,7.5,0V70h7V69.5z"/><path fill="#472b29" d="M36.25,65C36.112,65,36,64.888,36,64.75c0-1.223,0.995-2.218,2.218-2.218 c0.034,0.009,0.737-0.001,1.244,0.136c0.133,0.036,0.212,0.173,0.176,0.306c-0.036,0.134-0.173,0.213-0.306,0.176 c-0.444-0.12-1.1-0.12-1.113-0.118c-0.948,0-1.719,0.771-1.719,1.718C36.5,64.888,36.388,65,36.25,65z M29.5,69 c-0.276,0-0.5,0.224-0.5,0.5s0.224,0.5,0.5,0.5s0.5-0.224,0.5-0.5S29.776,69,29.5,69z"/><path fill="#472b29" d="M38,70h-3.5c-0.276,0-0.5-0.224-0.5-0.5s0.224-0.5,0.5-0.5H38c1.654,0,3-1.346,3-3 c0-1.496-1.125-2.768-2.618-2.959c-0.134-0.018-0.255-0.088-0.336-0.196s-0.115-0.244-0.094-0.377C37.975,62.314,38,62.16,38,62 c0-1.654-1.346-3-3-3c-0.85,0-1.638,0.355-2.219,1c-0.125,0.139-0.321,0.198-0.5,0.148c-0.182-0.049-0.321-0.195-0.36-0.379 C31.58,58.165,30.141,57,28.5,57c-1.93,0-3.5,1.57-3.5,3.5c0,0.143,0.021,0.28,0.041,0.418c0.029,0.203-0.063,0.438-0.242,0.54 s-0.396,0.118-0.556-0.01C23.878,61.155,23.449,61,23,61c-0.966,0-1.792,0.691-1.963,1.644 c-0.048,0.267-0.296,0.446-0.569,0.405C20.314,63.025,20.16,63,20,63c-1.654,0-3,1.346-3,3s1.346,3,3,3h7.5 c0.276,0,0.5,0.224,0.5,0.5S27.776,70,27.5,70H20c-2.206,0-4-1.794-4-4s1.794-4,4-4c0.059,0,0.116,0.002,0.174,0.006 C20.588,60.82,21.711,60,23,60c0.349,0,0.689,0.061,1.011,0.18C24.176,57.847,26.126,56,28.5,56 c1.831,0,3.466,1.127,4.153,2.774C33.333,58.276,34.155,58,35,58c2.206,0,4,1.794,4,4c0,0.048-0.001,0.095-0.004,0.142 C40.739,62.59,42,64.169,42,66C42,68.206,40.206,70,38,70z"/><path fill="#472b29" d="M32.5,69c-0.159,0-0.841,0-1,0c-0.276,0-0.5,0.224-0.5,0.5s0.224,0.5,0.5,0.5 c0.159,0,0.841,0,1,0c0.276,0,0.5-0.224,0.5-0.5S32.776,69,32.5,69z"/><path fill="none" d="M60.035,47.421c-2.745,0.626-5.71,1.664-8.479,2.788l2.398,2.398 C55.891,50.91,57.922,49.178,60.035,47.421z"/><path fill="none" d="M51.555,50.209c-3.655,1.484-6.963,3.117-8.975,4.157l4.498,4.498 c2.116-2.013,4.418-4.107,6.874-6.257L51.555,50.209z"/><path fill="#e4273e" d="M35.767,71.313l-1.655,5.454l18.206-12.663l-5.24-5.24C42.154,63.549,38.242,67.798,35.767,71.313z"/><polygon fill="#ef9922" points="82,41.985 59.719,41.529 52.409,20.475 47.905,33.427 67.473,52.995"/><path fill="#e4273e" d="M22.81,41.976L40.564,55.44c0,0,0.755-0.421,2.016-1.074L30.042,41.828L22.81,41.976z"/><path fill="#ee4267" d="M42.911,41.565l-12.869,0.263l12.538,12.538c2.011-1.041,5.319-2.673,8.975-4.157L42.911,41.565z"/><path fill="#f47c22" d="M67.473,52.995L47.905,33.427l-2.815,8.094l-2.179,0.044l8.644,8.644 c2.769-1.124,5.734-2.162,8.479-2.788c-2.112,1.757-4.144,3.489-6.082,5.186l13.52,13.52L64.246,55.44L67.473,52.995z"/><path fill="#ee4267" d="M47.079,58.864l5.24,5.24l0.083-0.057l18.288,12.729l-3.216-10.649l-13.52-13.52 C51.497,54.758,49.194,56.851,47.079,58.864z"/><path fill="#472b29" d="M70.689,77.275c-0.1,0-0.2-0.03-0.286-0.09l-18.002-12.53L34.398,77.177 c-0.175,0.122-0.408,0.119-0.58-0.006c-0.172-0.125-0.246-0.346-0.185-0.55l1.655-5.454c0.016-0.051,0.039-0.099,0.07-0.143 c3.946-5.604,11.758-13.382,22.652-22.562c-8.037,2.322-17.103,7.358-17.202,7.414c-0.174,0.098-0.388,0.082-0.546-0.038 L22.508,42.374c-0.169-0.129-0.239-0.351-0.173-0.553c0.066-0.203,0.252-0.341,0.465-0.346l21.933-0.448l7.205-20.717 c0.07-0.201,0.259-0.336,0.472-0.336l0,0c0.213,0,0.402,0.135,0.472,0.336l7.197,20.726l21.932,0.448 c0.213,0.005,0.399,0.144,0.465,0.346s-0.004,0.424-0.173,0.553L64.825,55.629l6.343,21.002c0.062,0.204-0.013,0.424-0.185,0.549 C70.895,77.243,70.792,77.275,70.689,77.275z M52.401,63.546c0.1,0,0.2,0.03,0.286,0.09l17.108,11.908l-6.028-19.959 c-0.061-0.2,0.01-0.417,0.176-0.543l16.608-12.587l-20.842-0.426c-0.209-0.004-0.394-0.139-0.462-0.336l-6.839-19.695 l-6.846,19.687c-0.068,0.197-0.253,0.332-0.462,0.336l-20.843,0.426l16.351,12.399c1.783-0.97,11.488-6.128,19.315-7.912 c0.227-0.052,0.458,0.06,0.56,0.266c0.103,0.208,0.049,0.458-0.128,0.606C48.68,57.514,40.338,65.717,36.222,71.535l-1.213,3.999 l17.106-11.898C52.201,63.576,52.301,63.546,52.401,63.546z"/><g><path fill="#472b29" d="M74.5,45h-14c-0.276,0-0.5-0.224-0.5-0.5s0.224-0.5,0.5-0.5h14c0.276,0,0.5,0.224,0.5,0.5 S74.776,45,74.5,45z"/></g><g><path fill="#472b29" d="M56.875,42.227c-0.206,0-0.399-0.128-0.472-0.334l-2.68-7.602c-0.092-0.26,0.045-0.546,0.306-0.638 c0.259-0.092,0.545,0.045,0.638,0.306l2.68,7.602c0.092,0.26-0.045,0.546-0.306,0.638C56.986,42.218,56.93,42.227,56.875,42.227z"/></g><g><path fill="#472b29" d="M53.453,32.25c-0.216,0-0.416-0.142-0.48-0.359l-0.953-3.25c-0.078-0.265,0.074-0.543,0.339-0.62 c0.267-0.077,0.543,0.074,0.621,0.339l0.953,3.25c0.078,0.265-0.074,0.543-0.339,0.62C53.547,32.243,53.5,32.25,53.453,32.25z"/></g><g><path fill="#472b29" d="M43.5,45h-13c-0.276,0-0.5-0.224-0.5-0.5s0.224-0.5,0.5-0.5h13c0.276,0,0.5,0.224,0.5,0.5 S43.776,45,43.5,45z"/></g><g><path fill="#472b29" d="M65.905,70.375c-0.214,0-0.412-0.139-0.478-0.354l-3.946-12.875 c-0.081-0.264,0.067-0.544,0.332-0.625c0.265-0.08,0.543,0.068,0.625,0.332l3.946,12.875c0.081,0.264-0.067,0.544-0.332,0.625 C66.003,70.368,65.954,70.375,65.905,70.375z"/></g></svg>